<?xml version="1.0" standalone="no"?>
<!DOCTYPE svg PUBLIC "-//W3C//DTD SVG 20010904//EN"
 "http://www.w3.org/TR/2001/REC-SVG-20010904/DTD/svg10.dtd">
<svg version="1.0" xmlns="http://www.w3.org/2000/svg"
 width="1024.000000pt" height="1024.000000pt" viewBox="0 0 1024.000000 1024.000000"
 preserveAspectRatio="xMidYMid meet">

<g transform="translate(0.000000,1024.000000) scale(0.100000,-0.100000)"
fill="#000000" stroke="none">
<path d="M3212 9414 c-41 -28 -30 -69 75 -272 53 -103 129 -245 168 -317 84
-152 118 -216 113 -219 -2 -1 -28 -13 -58 -25 -189 -79 -500 -256 -677 -387
-316 -232 -623 -543 -840 -850 -266 -377 -470 -807 -578 -1219 -92 -348 -126
-619 -126 -1000 -1 -497 71 -912 232 -1343 441 -1180 1414 -2048 2647 -2362
520 -133 1097 -157 1620 -69 943 158 1837 708 2419 1486 679 909 917 2115 637
3228 -246 978 -894 1838 -1759 2336 -151 87 -394 202 -411 195 -8 -3 -13 -2
-11 2 72 127 325 610 347 661 35 81 38 130 12 154 -26 24 -52 21 -103 -12 -79
-49 -312 -329 -461 -552 l-91 -136 -90 28 c-181 57 -440 108 -711 140 -235 28
-644 30 -871 5 -264 -29 -625 -103 -781 -159 l-41 -15 -56 86 c-164 256 -452
592 -533 622 -35 14 -46 13 -72 -6z m2393 -918 c167 -24 265 -43 430 -83 83
-20 151 -37 153 -38 2 -2 -13 -40 -32 -86 -78 -190 -183 -540 -226 -753 -16
-82 -32 -151 -34 -154 -3 -2 -67 12 -144 31 -239 61 -333 72 -632 72 -297 -1
-398 -12 -627 -71 -72 -19 -136 -34 -141 -34 -10 0 -23 49 -93 335 -53 218
-97 362 -160 521 -35 90 -46 129 -38 134 46 29 499 120 694 139 142 15 720 6
850 -13z m-1820 -313 c86 -181 162 -372 235 -593 43 -129 81 -251 85 -270 6
-34 5 -35 -52 -65 -89 -46 -250 -157 -329 -227 -330 -292 -540 -698 -621
-1193 -24 -151 -24 -482 0 -612 78 -415 269 -712 602 -935 104 -70 263 -151
388 -198 l87 -34 -57 -30 c-91 -49 -209 -134 -290 -210 -250 -233 -453 -634
-453 -894 0 -116 14 -157 75 -217 148 -148 359 -66 411 160 40 176 69 259 141
407 43 87 78 156 80 155 1 -2 -10 -55 -26 -118 -85 -338 -102 -774 -45 -1139
15 -94 49 -269 60 -302 10 -33 -273 75 -510 194 -653 327 -1162 830 -1501
1480 -192 369 -302 719 -362 1148 -25 180 -25 705 0 875 58 390 154 714 307
1032 294 611 741 1104 1320 1454 111 67 387 209 406 209 7 0 28 -35 49 -77z
m2817 29 c387 -181 783 -472 1070 -787 489 -535 797 -1221 874 -1946 23 -217
15 -655 -16 -854 -80 -530 -261 -992 -561 -1435 -223 -330 -529 -640 -865
-876 -262 -185 -614 -365 -871 -444 -79 -24 -77 -24 -69 -3 4 9 20 82 36 162
88 438 79 901 -26 1299 -13 52 -24 97 -24 100 0 4 30 -51 67 -123 78 -153 116
-252 149 -393 38 -160 83 -232 171 -269 72 -30 179 -11 242 43 61 53 85 120
84 234 -3 286 -219 692 -491 927 -85 73 -239 177 -289 195 l-33 12 98 37 c693
260 1035 771 1009 1509 -19 530 -215 999 -567 1350 -126 127 -270 234 -401
301 -33 16 -59 31 -59 33 0 21 112 386 150 489 67 184 201 487 214 487 2 0 51
-22 108 -48z m-2345 -2130 c155 -60 273 -213 330 -431 22 -81 26 -118 26 -236
-1 -216 -41 -337 -145 -431 -69 -62 -138 -88 -249 -92 -161 -7 -266 35 -374
150 -132 139 -203 348 -191 563 6 122 21 190 62 274 34 69 131 167 199 200 86
42 238 44 342 3z m2023 16 c90 -27 196 -121 243 -214 49 -97 62 -159 61 -304
0 -164 -16 -234 -84 -375 -109 -225 -260 -323 -483 -313 -122 5 -201 41 -277
125 -86 98 -115 212 -107 431 8 233 66 389 193 519 128 131 295 179 454 131z
m-1276 -3968 c131 -11 327 0 432 25 32 7 59 13 60 12 1 -1 14 -87 29 -191 15
-104 31 -202 36 -219 5 -17 7 -32 5 -34 -11 -11 -207 -23 -389 -23 -172 0
-492 21 -504 34 -2 2 1 15 6 29 8 21 25 118 66 373 l5 31 67 -14 c37 -7 121
-18 187 -23z m-809 -560 c10 -11 16 -20 13 -20 -3 0 -13 9 -23 20 -10 11 -16
20 -13 20 3 0 13 -9 23 -20z m415 17 c0 -2 -12 -14 -27 -28 l-28 -24 24 28
c23 25 31 32 31 24z"/>
</g>
</svg>
